<svg width="16" height="16" viewBox="0 0 16 16" fill="none" xmlns="http://www.w3.org/2000/svg">
<rect width="16" height="16" rx="8" fill="#6B778C" fill-opacity="0.8"/>
<path d="M6.53033 5.46967C6.23744 5.17678 5.76256 5.17678 5.46967 5.46967C5.17678 5.76256 5.17678 6.23744 5.46967 6.53033L6.53033 5.46967ZM9.46967 10.5303C9.76256 10.8232 10.2374 10.8232 10.5303 10.5303C10.8232 10.2374 10.8232 9.76256 10.5303 9.46967L9.46967 10.5303ZM5.46967 6.53033L9.46967 10.5303L10.5303 9.46967L6.53033 5.46967L5.46967 6.53033Z" fill="white"/>
<path d="M10.5303 6.53033C10.8232 6.23744 10.8232 5.76256 10.5303 5.46967C10.2374 5.17678 9.76256 5.17678 9.46967 5.46967L10.5303 6.53033ZM5.46967 9.46967C5.17678 9.76256 5.17678 10.2374 5.46967 10.5303C5.76256 10.8232 6.23744 10.8232 6.53033 10.5303L5.46967 9.46967ZM9.46967 5.46967L5.46967 9.46967L6.53033 10.5303L10.5303 6.53033L9.46967 5.46967Z" fill="white"/>
</svg>
