<svg width="517" height="462" viewBox="0 0 517 462" fill="none" xmlns="http://www.w3.org/2000/svg">
<circle cx="35.5" cy="68.5" r="5.5" fill="#017AFF" fill-opacity="0.3"/>
<circle cx="167" cy="98" r="7" fill="#017AFF" fill-opacity="0.3"/>
<circle cx="171.5" cy="4.5" r="4.5" fill="#017AFF" fill-opacity="0.3"/>
<circle cx="242.5" cy="381.5" r="3.5" fill="#017AFF" fill-opacity="0.3"/>
<circle cx="149.5" cy="438.5" r="5.5" fill="#017AFF" fill-opacity="0.3"/>
<circle cx="365" cy="453" r="9" fill="#017AFF" fill-opacity="0.3"/>
<circle cx="460" cy="302" r="5" fill="#017AFF" fill-opacity="0.3"/>
<circle cx="360.5" cy="113.5" r="8.5" fill="#017AFF" fill-opacity="0.3"/>
<circle cx="8.5" cy="397.5" r="8.5" fill="#017AFF" fill-opacity="0.3"/>
<circle cx="478" cy="13" r="4" fill="#017AFF" fill-opacity="0.3"/>
<circle cx="510" cy="185" r="7" fill="#017AFF" fill-opacity="0.3"/>
<path d="M220.506 210.321C220.506 212.765 219.931 215.071 218.782 217.239C217.633 219.407 215.795 221.182 213.267 222.566C210.739 223.904 207.499 224.572 203.546 224.572H194.859V244.082H187V196H203.546C207.223 196 210.325 196.646 212.853 197.937C215.427 199.182 217.334 200.889 218.575 203.057C219.862 205.224 220.506 207.646 220.506 210.321ZM203.546 218.138C206.534 218.138 208.763 217.47 210.233 216.132C211.704 214.748 212.44 212.811 212.44 210.321C212.44 205.063 209.475 202.434 203.546 202.434H194.859V218.138H203.546Z" fill="#373F51"/>
<path d="M225.382 224.849C225.382 221.021 226.163 217.631 227.726 214.679C229.335 211.727 231.495 209.444 234.206 207.83C236.964 206.17 239.998 205.34 243.307 205.34C246.294 205.34 248.891 205.939 251.097 207.138C253.349 208.291 255.142 209.744 256.475 211.497V205.962H264.403V244.082H256.475V238.409C255.142 240.208 253.326 241.706 251.028 242.906C248.73 244.105 246.11 244.704 243.169 244.704C239.906 244.704 236.918 243.874 234.206 242.214C231.495 240.507 229.335 238.155 227.726 235.157C226.163 232.113 225.382 228.677 225.382 224.849ZM256.475 224.987C256.475 222.358 255.923 220.075 254.82 218.138C253.763 216.201 252.361 214.725 250.615 213.711C248.868 212.696 246.984 212.189 244.961 212.189C242.939 212.189 241.055 212.696 239.308 213.711C237.562 214.679 236.137 216.132 235.034 218.069C233.977 219.96 233.448 222.22 233.448 224.849C233.448 227.478 233.977 229.784 235.034 231.767C236.137 233.751 237.562 235.273 239.308 236.333C241.101 237.348 242.985 237.855 244.961 237.855C246.984 237.855 248.868 237.348 250.615 236.333C252.361 235.319 253.763 233.843 254.82 231.906C255.923 229.922 256.475 227.616 256.475 224.987Z" fill="#373F51"/>
<path d="M308.921 205.962L285.619 262H277.484L285.205 243.459L270.245 205.962H279L289.686 235.019L300.786 205.962H308.921Z" fill="#373F51"/>
<path d="M339.74 244.082L328.71 224.849H322.712V244.082H314.852V196H331.398C335.075 196 338.178 196.646 340.706 197.937C343.279 199.229 345.187 200.958 346.428 203.126C347.715 205.294 348.358 207.715 348.358 210.39C348.358 213.526 347.439 216.386 345.601 218.969C343.808 221.505 341.027 223.235 337.259 224.157L349.117 244.082H339.74ZM322.712 218.553H331.398C334.34 218.553 336.546 217.816 338.017 216.34C339.534 214.864 340.292 212.881 340.292 210.39C340.292 207.899 339.557 205.962 338.086 204.579C336.615 203.149 334.386 202.434 331.398 202.434H322.712V218.553Z" fill="#373F51"/>
<path d="M392.814 205.962V244.082H384.955V239.585C383.714 241.153 382.082 242.398 380.06 243.321C378.084 244.197 375.97 244.635 373.718 244.635C370.73 244.635 368.041 244.013 365.651 242.767C363.307 241.522 361.446 239.677 360.067 237.233C358.734 234.788 358.068 231.836 358.068 228.377V205.962H365.858V227.201C365.858 230.614 366.708 233.243 368.409 235.088C370.11 236.887 372.431 237.786 375.372 237.786C378.314 237.786 380.635 236.887 382.335 235.088C384.082 233.243 384.955 230.614 384.955 227.201V205.962H392.814Z" fill="#373F51"/>
<path d="M438 224.088C438 225.518 437.908 226.809 437.724 227.962H408.7C408.929 231.006 410.056 233.451 412.078 235.296C414.1 237.14 416.582 238.063 419.524 238.063C423.752 238.063 426.74 236.287 428.486 232.736H436.966C435.817 236.241 433.726 239.124 430.692 241.384C427.705 243.597 423.982 244.704 419.524 244.704C415.893 244.704 412.629 243.897 409.734 242.283C406.884 240.623 404.632 238.317 402.977 235.365C401.369 232.367 400.565 228.908 400.565 224.987C400.565 221.067 401.346 217.631 402.909 214.679C404.517 211.681 406.746 209.375 409.596 207.761C412.491 206.147 415.801 205.34 419.524 205.34C423.109 205.34 426.303 206.124 429.107 207.692C431.91 209.26 434.093 211.474 435.656 214.333C437.219 217.147 438 220.398 438 224.088ZM429.796 221.597C429.75 218.692 428.716 216.363 426.694 214.61C424.671 212.857 422.166 211.981 419.179 211.981C416.467 211.981 414.146 212.857 412.216 214.61C410.285 216.317 409.136 218.646 408.769 221.597H429.796Z" fill="#373F51"/>
<path d="M126.378 251.28C126.378 251.28 157.487 240.456 157.487 211.337C157.487 182.219 122.898 173.049 122.898 173.049V141H99.3385V171.631H76.4221V141H52.863V171.631H30V192.43H52.8094V315H76.6899V253.266L99.6062 253.644L135.695 290.562L166 290.372L126.378 251.28ZM76.4221 232.94V191.909H114.973C114.973 191.909 133.124 194.604 134.784 211.574C135.962 223.675 123.112 232.94 116.258 232.94C107.906 232.94 76.4221 232.94 76.4221 232.94Z" fill="#017AFF"/>
</svg>
